<?xml version="1.0" encoding="UTF-8" standalone="no"?>
<!DOCTYPE svg PUBLIC "-//W3C//DTD SVG 1.1//EN" "http://www.w3.org/Graphics/SVG/1.1/DTD/svg11.dtd">
<svg width="100%" height="100%" viewBox="0 0 94 86" version="1.1" xmlns="http://www.w3.org/2000/svg" xmlns:xlink="http://www.w3.org/1999/xlink" xml:space="preserve" xmlns:serif="http://www.serif.com/" style="fill-rule:evenodd;clip-rule:evenodd;stroke-linejoin:round;stroke-miterlimit:2;">
    <g transform="matrix(1,0,0,1,-3.11334,-7.0736)">
        <path d="M3.145,68.012C3.145,74.903 8.754,80.512 15.645,80.512C19.766,80.473 30.383,80.59 34.614,80.469C43.969,97.086 68.579,97.082 77.93,80.469C78.004,80.481 78.07,80.512 78.148,80.512L84.398,80.512C91.289,80.512 96.898,74.903 96.898,68.012L96.898,32.074C96.898,25.711 92.117,20.457 85.96,19.683L85.96,18.011C85.96,15.425 83.859,13.324 81.273,13.324L76.585,13.324C73.999,13.324 71.898,15.425 71.898,18.011L71.898,19.519C71.031,19.39 70.277,18.847 69.929,18.023L68.007,13.511C67.296,11.831 65.804,10.66 64.062,10.316C64.105,10.363 64.077,8.66 64.085,8.636C64.085,7.773 63.386,7.074 62.523,7.074C61.659,7.074 60.96,7.773 60.96,8.636L60.96,10.199L51.585,10.199L51.585,8.636C51.585,7.773 50.886,7.074 50.023,7.074C49.159,7.074 48.46,7.773 48.46,8.636C48.464,8.703 48.441,10.335 48.488,10.343C46.71,10.73 45.198,11.933 44.476,13.652L42.554,18.167C42.222,18.952 41.484,19.46 40.648,19.542L40.648,18.011C40.648,15.425 38.546,13.324 35.96,13.324L34.398,13.324C31.812,13.324 29.71,15.425 29.71,18.011L29.71,19.574L28.148,19.574L28.148,18.011C28.148,15.425 26.046,13.324 23.46,13.324L15.648,13.324C13.062,13.324 10.96,15.425 10.96,18.011L10.96,19.23C10.71,19.456 10.48,19.703 10.284,19.98C5.659,21.218 2.741,25.742 3.152,30.511L3.152,68.011L3.145,68.012ZM78.086,69.477C77.515,80.747 67.53,90.043 56.269,89.887C44.46,90.07 34.214,79.844 34.394,68.012C34.394,55.95 44.207,46.137 56.269,46.137C68.836,46.086 79.004,56.938 78.086,69.477ZM77.91,55.551C77.05,54.062 76.039,52.676 74.902,51.402C75.105,51.031 74.992,49.684 75.019,49.262C75.043,47.594 72.664,47.113 72.031,48.629C71.484,48.184 70.918,47.758 70.332,47.356L70.332,44.57C70.296,42.516 67.242,42.516 67.207,44.57L67.207,45.563C66.199,45.07 65.16,44.633 64.082,44.277L64.082,41.445C64.046,39.391 60.992,39.391 60.957,41.445L60.957,43.465C59.937,43.27 58.89,43.152 57.832,43.09L57.832,39.887C57.832,39.023 57.132,38.324 56.269,38.324C55.406,38.324 54.707,39.023 54.707,39.887L54.707,43.09C53.648,43.156 52.601,43.273 51.582,43.465L51.582,41.445C51.546,39.391 48.492,39.391 48.457,41.445L48.457,44.277C47.379,44.633 46.339,45.07 45.332,45.563L45.332,44.57C45.296,42.516 42.242,42.516 42.207,44.57L42.207,47.356C41.621,47.754 41.054,48.18 40.507,48.629C39.875,47.113 37.496,47.594 37.519,49.262C37.55,49.688 37.429,51.023 37.636,51.402C36.496,52.684 35.48,54.074 34.617,55.566C38.613,30.668 73.824,30.578 77.91,55.551L77.91,55.551ZM35.105,45.324C40.831,23.683 71.628,23.527 77.425,45.367C76.436,43.793 75.288,42.308 73.948,40.968C62.85,29.507 43.132,32.031 35.1,45.324L35.105,45.324ZM75.019,18.012C75.019,17.149 75.718,16.449 76.581,16.449L81.269,16.449C82.132,16.449 82.831,17.149 82.831,18.012L82.831,19.574L75.019,19.574L75.019,18.012ZM84.394,22.699C89.562,22.699 93.769,26.906 93.769,32.074L93.769,68.012C93.769,73.18 89.562,77.387 84.394,77.387L79.429,77.387C80.499,74.883 80.941,72.227 81.269,69.575L81.269,60.2C87.452,60.036 87.448,50.985 81.269,50.825C81.257,45.977 79.847,41.27 77.249,37.266L71.628,22.653C72.593,22.782 83.151,22.661 84.394,22.7L84.394,22.699ZM81.269,57.074L81.269,53.949C83.323,53.984 83.32,57.039 81.269,57.074ZM45.226,20.133C45.198,19.747 47.163,15.336 47.347,14.868C47.741,13.93 48.663,13.321 49.687,13.321L62.999,13.321C63.928,13.321 64.76,13.872 65.124,14.731C66.702,18.192 70.038,27.372 71.499,31.036C63.003,24.11 49.429,24.22 41.05,30.977L45.222,20.137L45.226,20.133ZM32.831,18.012C32.831,17.149 33.53,16.45 34.393,16.45L35.956,16.45C36.819,16.45 37.518,17.149 37.518,18.012L37.518,19.575L32.831,19.575L32.831,18.012ZM26.581,31.207C29.546,29.641 30.604,25.504 28.835,22.699C31.632,22.668 38.092,22.758 40.905,22.664L35.323,37.176C32.756,41.075 31.264,45.887 31.268,50.828L31.268,69.578C31.604,72.246 32.045,74.906 33.108,77.391L26.291,77.391C26.467,76.899 26.58,76.379 26.58,75.828L26.581,31.207ZM15.643,16.449L23.455,16.449C24.318,16.449 25.018,17.148 25.018,18.012L25.018,19.574L22.237,19.574C21.377,18.621 20.147,18.012 18.768,18.012L14.08,18.012C14.08,17.148 14.779,16.449 15.643,16.449ZM14.08,21.137L18.768,21.137C19.631,21.137 20.33,21.836 20.33,22.699L12.518,22.699C12.518,21.836 13.217,21.137 14.08,21.137ZM9.393,23.719C9.26,24.769 9.795,25.816 10.955,25.824L21.893,25.824C22.757,25.824 23.456,25.125 23.456,24.262L23.456,22.699C27.581,22.809 27.569,28.844 23.456,28.949L6.28,28.949C6.409,26.766 7.608,24.832 9.393,23.719L9.393,23.719ZM6.268,32.074L23.456,32.074L23.456,75.824C23.456,76.687 22.757,77.387 21.893,77.387L15.643,77.387C10.475,77.387 6.268,73.18 6.268,68.012L6.268,32.074Z" style="fill-rule:nonzero;"/>
    </g>
    <g transform="matrix(1,0,0,1,-3.11334,-7.0736)">
        <path d="M64.082,19.574C64.082,18.711 63.383,18.012 62.519,18.012L50.019,18.012C49.156,18.012 48.457,18.711 48.457,19.574C48.457,20.437 49.156,21.137 50.019,21.137L62.519,21.137C63.383,21.137 64.082,20.437 64.082,19.574Z" style="fill-rule:nonzero;"/>
    </g>
    <g transform="matrix(1,0,0,1,-3.11334,-7.0736)">
        <path d="M79.707,30.512L89.082,30.512C91.133,30.477 91.137,27.422 89.082,27.387L79.707,27.387C77.656,27.422 77.652,30.477 79.707,30.512Z" style="fill-rule:nonzero;"/>
    </g>
    <g transform="matrix(1,0,0,1,-3.11334,-7.0736)">
        <path d="M56.27,49.262C45.93,49.262 37.52,57.672 37.52,68.012C38.551,92.887 73.993,92.879 75.02,68.012C75.02,57.672 66.61,49.262 56.27,49.262ZM56.27,83.637C47.653,83.637 40.645,76.629 40.645,68.012C41.504,47.282 71.04,47.289 71.895,68.012C71.895,76.629 64.887,83.637 56.27,83.637Z" style="fill-rule:nonzero;"/>
    </g>
    <g transform="matrix(1,0,0,1,-3.11334,-7.0736)">
        <path d="M56.27,53.949C54.219,53.984 54.215,57.039 56.27,57.074C62.301,57.074 67.208,61.98 67.208,68.012C67.208,68.875 67.907,69.575 68.771,69.575C69.634,69.575 70.333,68.875 70.333,68.012C70.333,60.258 64.024,53.95 56.271,53.95L56.27,53.949Z" style="fill-rule:nonzero;"/>
    </g>
</svg>
